<svg version="1.2" xmlns="http://www.w3.org/2000/svg" viewBox="0 0 1396 837" width="1396" height="837"><style>.a{fill:#e1edfa}.b{fill:none;stroke:#001e6c;stroke-linecap:round;stroke-linejoin:round;stroke-width:2}.c{fill:#fff;stroke:#001e6c;stroke-linecap:round;stroke-linejoin:round;stroke-width:2}.d{fill:#9ebedf;stroke:#001e6c;stroke-linecap:round;stroke-linejoin:round;stroke-width:2}.e{fill:#001e6c;stroke:#001e6c;stroke-linecap:round;stroke-linejoin:round;stroke-width:2}.f{fill:#ffaa4c;stroke:#001e6c;stroke-linecap:round;stroke-linejoin:round;stroke-width:2}.g{fill:none;stroke:#001e6c;stroke-linecap:round;stroke-linejoin:round;stroke-width:4}.h{fill:#001e6c}.i{fill:#5089c6;stroke:#001e6c;stroke-linecap:round;stroke-linejoin:round;stroke-width:2}</style><path class="a" d="m138 293.2c37.8-21.3 79.1-38.1 116.3-57.7 63.8-33.6 126.7-69.2 187.4-108.2 81.2-52.3 162.8-93.1 258.8-109.5 107-18.4 219.2-9.7 321.4 27q1.4 0.5 2.8 1c81.1 29.5 155.5 79.6 208 148.8 61 80.4 88.9 178.9 85.4 279.1-0.9 25.6-3.2 51.2-6.1 76.6-30.9 267.9-379.4 293.6-523.7 285-144.2-8.5-432.9-98.8-509.9-89.2-83.4 10.4-175.3-19.1-230.4-84.3-65.7-77.8-58.9-197.2-8.1-281 23.7-39.2 59.1-65.8 98.1-87.6z"/><path class="b" d="m1214.1 310.5h-217.5v-265.2h217.5z"/><path class="b" d="m1199.9 293.2h-189.1v-230.6h189.1z"/><path class="b" d="m1138.9 218.8h-67.1v-81.8h67.1z"/><path class="b" d="m483.5 352.3v-338.5"/><path class="b" d="m39.1 539.1h444.4v-171.7"/><path class="b" d="m946.6 262.2v-246.8"/><path class="b" d="m502.3 28.6v510.5h444.3v-265.3"/><path class="b" d="m502.3 13.8v5.9"/><path class="c" d="m228.1 790.4h-32.4v-36.6h32.4z"/><path class="c" d="m331.4 757.6h-239v-161.3h239z"/><path class="d" d="m324.2 750.6h-224.6v-147.3h224.6z"/><path class="e" d="m659.4 583.1h-138.6c-13 0-24.3 9.1-27 21.9l-38.8 185.1h194.9l36.4-173.8c3.6-17.1-9.4-33.2-26.9-33.2z"/><path class="d" d="m1082 393c0 0-8.9 24.5-27.9 27.9-18.9 3.3-52.4-33.5-31.2-52.5 21.2-18.9 50.2 11.2 59.1 24.6z"/><path class="d" d="m1111 272.5c0 0-27.9 68.1-16.7 101.5 11.1 33.5 80.3 58 100.4 14.5 20-43.5-24.6-104.8-41.3-118.2-16.7-13.4-36.8-8.9-42.4 2.2z"/><path class="d" d="m1273.8 301.5c0 0-47.9 43.5-53.5 87-5.6 43.5 26.8 59.1 60.2 53.5 33.5-5.5 50.2-90.3 40.2-129.3-10-39.1-46.9-11.2-46.9-11.2z"/><path class="d" d="m1282.8 542.4c0 0-53.6 2.2-55.8 27.9-2.2 25.6 23.4 31.2 49.1 8.9 25.6-22.3 29-35.7 6.7-36.8z"/><path class="b" d="m1227.9 576.4c0 0 42.2-19.3 61.2-22.6"/><path class="d" d="m1294.7 710.3c0 0-39.3-36.4-59.1-19.9-19.7 16.5-5.6 38.6 28.3 41.1 33.9 2.4 45.7-4.6 30.8-21.2z"/><path class="b" d="m1231.9 695.3c0 0 43.4 16.3 59.2 27.4"/><path class="d" d="m1087.3 699.5c0 0 54.2-50.1 81.4-27.4 27.3 22.8 7.8 53.3-38.9 56.7-46.8 3.4-63.1-6.4-42.5-29.3z"/><path class="b" d="m1173.9 678.9c0 0-59.9 22.5-81.7 37.8"/><path class="d" d="m1150.1 595.9c0 0-5.6 26.8-25.7 36.9-20.1 10-55.8-11.2-36.8-43.5 19-32.4 52.4-6.7 62.5 6.6z"/><path class="d" d="m1103.2 512.3c0 0-10-22.3-49.1-7.8-39 14.5-54.6 36.8-30.1 44.6 24.6 7.8 79.2-36.8 79.2-36.8z"/><path class="b" d="m1095.7 511.3c0 0-41.3 4.5-63.7 23.5"/><path class="d" d="m1214.7 244.6c0 0 6.7 15.7 20.1 12.3 13.4-3.3 16.7-23.4 37.9-17.8 21.2 5.5 39.1 30.1 39.1 18.9 0-11.1-26.8-40.1-56.9-40.1-30.1 0-39 12.3-40.2 26.7z"/><path class="b" d="m1103.2 512.3c0 0 48-9.2 68 44.1 2 5.2 3.7 10.7 5 16.3"/><path class="d" d="m1303.6 460.6c0 0 10.1-22.3 49.1-7.8 39 14.5 54.6 36.8 30.1 44.6-24.5 7.9-79.2-36.8-79.2-36.8z"/><path class="b" d="m1312.6 462.1c0 0 40.2-2.2 59.2 21.3"/><path class="b" d="m1303.6 460.6c0 0-15.9-3-33.2 4.6"/><path class="b" d="m1128.8 420.6c-23.5-24-46.8-27.6-46.8-27.6 0 0-34.3-9.1-47.7 3.2"/><path class="b" d="m1133.6 297.1l-2.1-9.3"/><path class="b" d="m1187.9 790.1c0 0 5-192 0-250.4-5-58.3-28.3-126.6-28.3-126.6l-23.8-106.1"/><path class="b" d="m1287 338.3l4.3-9.2"/><path class="b" d="m1199.6 789.9c0 0 1.6-175.2 8.3-225.2 6.7-49.9 33.3-128.3 33.3-128.3l40.9-87.6"/><path class="b" d="m1227.9 576.4c0 0-11.7 100.4-18.3 213.8"/><path class="b" d="m1171.2 789.9c0 0 3.4-160.2-3.3-181.8-6.7-21.7-17.8-12.2-17.8-12.2 0 0-30.9 3.7-42.1 21.6"/><path class="b" d="m1178.9 585.2c8.7 48.9 0.7 204.9 0.7 204.9"/><path class="b" d="m1260.9 470.4c-9.6 6.6-18.9 17.3-25.3 34.4-20 53.3-17.7 285.4-17.7 285.4"/><path class="b" d="m1134.6 427c10.4 12.2 20.5 28.8 28.3 51.1 26.7 76.6 36.7 275.2 31.7 311.8"/><path class="b" d="m1202.3 498.7c-1.6 96.8-2.7 291.2-2.7 291.2"/><path class="b" d="m1202.5 486.7c1.1-64 2.4-126.6 3.7-160.3 3.4-86.6 8.5-81.8 8.5-81.8 0 0 6.2-19.4 40.9-17.2"/><path class="d" d="m1159.9 559.8c0 0-27.9-24.9-16.8-37.1 11.2-12.3 80.3-21.2 100.4-5.3 20.1 15.9-24.5 38.3-41.3 43.2-16.7 4.9-36.8 3.2-42.3-0.8z"/><path class="b" d="m1185.6 539.4c-0.4 2.5-0.6 5-0.6 7.4"/><path class="b" d="m1195.2 510.4c0 0-4.1 8.3-7.2 18.4"/><path class="d" d="m1159.9 722.3c0 0-27.9-24.8-16.8-37.1 11.2-12.2 80.3-21.2 100.4-5.3 20.1 15.9-24.5 38.3-41.3 43.2-16.7 4.9-36.8 3.3-42.3-0.8z"/><path class="b" d="m1195.2 672.9c0 0-10.2 20.4-10.2 36.5"/><path class="d" d="m1180.6 653.6c0 0-18.9-16.9-11.3-25.2 7.5-8.3 54.5-14.4 68.1-3.6 13.6 10.8-16.6 26-28 29.3-11.4 3.3-25 2.2-28.8-0.5z"/><path class="b" d="m1204.6 620c0 0-6.9 13.9-6.9 24.8"/><path class="c" d="m392.4 652.4c0 0-23.3 36.5-22.6 38.1 0.8 1.5 15.9 19.4 17.1 20.2 1.2 0.8 8.3 0.4 8.3 0.4l11.9-9.9c0 0 0-2.4-1.2-4.4-1.2-2-4.7-2.4-4.7-2.4 0 0 6.3-15.4 5.9-19.4-0.4-4-1.1-15.9-1.1-15.9z"/><path class="b" d="m401.2 694.4l-8 8.3"/><path class="c" d="m396.7 444c0 0 76.7 131.5 76.7 133.3 0 1.8-67.4 81.8-67.4 81.8l-13.6-6.7 29.7-80.4-38.8-26.9z"/><path class="e" d="m393.2 506.5l17.9 57.7-21.3-14z"/><path class="b" d="m455.3 565.6l-33.2 6.4 17.9-11.9"/><path class="b" d="m395.8 643l17.8 6.4"/><path class="c" d="m394.8 493.3l-9.4 85.5 1.9 102.3h-162.3l-2.8-46.9c0 0-52.6-162-52.1-167.6 0.4-5.7 87.6-48.4 87.6-48.4l73.7-2.3 65.3 28.1 0.4 23"/><path class="f" d="m295.5 444.6l15.1 18.4-10.3 201 19.1 22.4 23.9-24.8-23.1-197.8 5.6-27.1-8.8-22.4-39.1 3.2z"/><path class="c" d="m253.9 350.6l9.9 48.4 37.6 31.9 24.8-20.7-0.9-24.4h-10.8l-46.9-23.5z"/><path class="c" d="m309.8 422.9l8 35.7 22-35.2-14-23 0.4 9.8z"/><path class="c" d="m263.8 399l-12.2 21.5 46.9 40.4 4.3-34.2z"/><path class="c" d="m249.1 337.2c0 0-5.1-11.3-10.2-5.9-5 5.5 0.8 20.3 7.4 24.2 6.6 3.9 10.9 1.9 10.9 1.9 0 0 11.3 18.7 13.7 20.3 2.3 1.5 37.4 17.5 42 19.1 4.7 1.5 20.3-3.9 23.4-8.2 3.1-4.3 0.8-46.7 0-59.2-0.8-12.5-9.3-61.6-10.9-64.3-1.6-2.7 1.6-31.5-5.8-31.5-7.4 0-14.5 3.9-14.5 3.9 0 0 4.7-8.6-0.7-5.9-5.5 2.8-14.1 9-45.2 20.7-31.2 11.7-21.1 30.7-20.3 32.7 0.8 1.9 10.2 52.2 10.2 52.2z"/><path class="b" d="m249.1 337.2c0 0-0.3-0.6-0.8-1.5z"/><path class="e" d="m325.1 264.2c-0.9-5.6 1.4-30.6-5.5-30.6-7.4 0-14.5 3.9-14.5 3.9 0 0 4.7-8.6-0.7-5.9-5.5 2.8-14.1 9-45.2 20.7-31.2 11.7-21.1 30.7-20.3 32.7 0.8 1.9 10.2 52.2 10.2 52.2l7-2.4c0 0-5.5-16.3-2.8-19 2.8-2.8 7.8-5.9 7.8-7.4 0-1.6-6.6-16.4-2.7-20.7 3.4-3.7 53.2-19.3 66.7-23.5z"/><path class="b" d="m315.3 307.2l6.6 44.4-10.5-2.7"/><path class="g" d="m300.5 310.3c0 0-14.1-1.9-21.8 2.7"/><path class="g" d="m318 297.5c0 0 1.6-12.9 11.3-8.6"/><path class="b" d="m290.3 358.6c0 0 10.6 4.3 18.3 4.7"/><path class="e" d="m297.4 322.8c0 2.5-1.3 4.6-2.8 4.6-1.5 0-2.7-2.1-2.7-4.6 0-2.6 1.2-4.7 2.7-4.7 1.5 0 2.8 2.1 2.8 4.7z"/><path class="e" d="m330.8 313c0 2.6-1.2 4.7-2.7 4.7-1.5 0-2.7-2.1-2.7-4.7 0-2.6 1.2-4.6 2.7-4.6 1.5 0 2.7 2 2.7 4.6z"/><path class="c" d="m299.8 401.4c0 0-5.4-9.3-3.9-9.7 1.6-0.4 21-6.2 20.7-9.3-0.4-3.2-6.3-5.9-10.9-4.7-4.7 1.2-28.5 5.8-27.7 9.3 0.8 3.5 8.2 24.6 10.9 29.6 2.7 5.1 5.8 47.9 5.8 47.9h19.9l0.8-12.4c0 0 10.1-2 11.3-4.7 1.2-2.7 0.4-10.9 0.4-10.9 0 0 8.9-1.6 8.9-3.5 0-2 2.8-19.5 0-21.8-2.7-2.4-21.8-14.4-25.3-14.4-3.5 0-10.9 4.6-10.9 4.6z"/><path class="b" d="m327.1 436.5l0.4-7.8 3.5-1.9"/><path class="b" d="m299.8 401.4l-8.2 5.5"/><path class="c" d="m248.3 469.8l42.7 72.3 3.7-77.6h19.9c0 0 12.5 80 15.4 99.7 2.8 19.7 2.3 39.9-0.5 44.1-2.8 4.3-15.4 18.2-20 18.2-4.7 0-19-7.8-21.3-11.6-1.2-1.9-30.5-18.1-55.4-43.9-23.7-24.5-48.1-59.9-48.1-59.9"/><path class="b" d="m291 542.1l-5.2 46.1"/><path class="b" d="m293.8 475.9h21.1"/><path class="e" d="m225 681.1v109h165.2l-2.9-109z"/><path class="e" d="m710 272.5c0 0-24.4 6.6-31 22.6-6.6 15.9-1.9 19.2-0.5 18.8 1.4-0.5 4.7-6.6 4.7-6.6 0 0-5.2 14.5 1.4 20.6 6.6 6.2 17.4 14.6 17.4 14.6 0 0-1.4 18.8-7.1 30.5-5.6 11.8-13.6 24.9-9.3 30.1 4.2 5.2 9.3-2.3 9.3-2.3 0 0 4.7 11.7 21.2 15.9 16.4 4.2 50.7 10.2 64.8 8.3 14.1-1.9 23.5-10.2 23.5-10.2 0 0-4.2 8 3.3 3.3 7.5-4.7 12.2-10.8 19.7-27.7 7.5-16.9 12.2-43.7 8.5-64.3-3.8-20.7-22.1-38.1-34.3-47.9-12.2-9.9-37.1-19.3-59.7-17-22.5 2.4-31.9 11.3-31.9 11.3z"/><path class="f" d="m828.1 457.8l6.2 77.5-32.6 60.3-13.6-27.7z"/><path class="e" d="m805.3 522.8l-9.4 60.5-8.1-13.3z"/><path class="e" d="m618 790.1l6.6-74.7 196.2 8 3.3 65.4z"/><path class="f" d="m721.2 299.2c0 0-3.1 20 0.4 23.5 3.5 3.5 20.9 11.7 20.9 11.7 0 0-2.2-22.1-2.2-23.5 0-1.3 12.2 30 18.3 33.9 6 4 17.3 13.5 17.3 13.5 0 0 1.8 5.2 3.5 4.8 1.8-0.4 5.7-4.3 5.7-4.3 0 0 12.6-3.5 11.3 6.5-1.3 10-10 23.4-15.2 24.3-5.3 0.9-9.2 0.4-9.2 0.4 0 0-6.9 20.9-7.8 27.9-0.9 6.9-1.3 8.2-0.4 10.8 0.8 2.6 20.8 12.2 25.2 13.5 4.3 1.3 39.1 15.6 39.1 15.6l-41.3 115.7 42.6 152.5c0 0-63.9 14.8-124.7 9.1-60.9-5.6-86.1-18.7-86.1-18.7l51.7-146.4-18.7-125.6 68.7-12.6 1.3-15.7c0 0-16.9-4.8-22.6-16.9-5.8-12.6-0.4-34.8 0-41.3 0.4-6.5 0.9-15.7 0-23-0.9-7.4 2.6-30.5 22.2-35.7z"/><path class="b" d="m690.5 553.2c0 0 47.1 28.3 49 28.9"/><path class="b" d="m709.4 571.4l33.3 22.6"/><path class="c" d="m781.2 438.9c-7.4-3.4-16.8-8.4-17.4-10.2-0.9-2.6-0.5-3.9 0.4-10.8 0.9-7 7.8-27.9 7.8-27.9 0 0 3.9 0.5 9.2-0.4 5.2-0.9 13.9-14.3 15.2-24.3 1.3-10-11.3-6.5-11.3-6.5 0 0-3.9 3.9-5.7 4.3-1.7 0.4-3.5-4.8-3.5-4.8 0 0-11.3-9.5-17.3-13.5-6.1-3.9-18.3-35.2-18.3-33.9 0 1.4 2.2 23.5 2.2 23.5 0 0-17.4-8.2-20.9-11.7-3.5-3.5-0.4-23.5-0.4-23.5-19.6 5.2-23.1 28.3-22.2 35.7 0.9 7.3 0.4 16.5 0 23-0.4 6.5-5.8 28.7 0 41.3 5.7 12.1 22.6 16.9 22.6 16.9l-1.3 15.7-19.2 3.5-8.9 51.3 70.9 5z"/><path class="b" d="m720.3 431.8l-0.6 13.5"/><path class="b" d="m764.1 402.4c0 0-9.6 9.1-24.9 10.6"/><path class="b" d="m717.3 383.5c0 0 13.4 5.2 24.3-6.1"/><path class="b" d="m722.5 337.5c0 0 0.5 1.6 0 7.4-0.5 5.8-11 21.1-7.8 22.7 3.2 1.6 5.9 0.9 12.2 1.4"/><path class="h" d="m715.1 346c0 2.8-1.3 5-3 5-1.7 0-3.1-2.2-3.1-5 0-2.7 1.4-4.9 3.1-4.9 1.7 0 3 2.2 3 4.9z"/><path class="h" d="m744.3 349.1c0 2.7-1.4 4.9-3.1 4.9-1.7 0-3-2.2-3-4.9 0-2.7 1.3-4.9 3-4.9 1.7 0 3.1 2.2 3.1 4.9z"/><path class="b" d="m706.7 335c0 0 7-5.2 12.7-2.4"/><path class="b" d="m737.7 334.1c0 0 10.3-1.5 14.1 7"/><path class="c" d="m651.6 444.4l-8 56.2-24.7 51.3-49.1-73.7c0 0-1.7-11.7-4.5-16.2-2.8-4.5-12.3-6.7-17.9-10.6-5.5-3.9-9.5-16.2-13.9-11.7-4.5 4.4-1.7 12.3 0 14.5 1.6 2.2 14.5 12.8 14.5 12.8l-31.3 10.1c0 0-24.6-11.7-26.8-7.3-2.2 4.5 17.9 25.7 25.7 28 7.8 2.2 39.1-2.8 39.1-2.8 0 0 35.2 86 43 95.5 7.9 9.5 17.9 21.3 20.1 20.7 2.3-0.5 50.7-51.5 50.7-51.5z"/><path class="b" d="m558.6 485.7c0 0-8.3-5.8-11.2-5.8-2.9 0-32.1 4.9-32.1 4.9 0 0-15-8.3-17.9-6.8"/><path class="f" d="m641.7 588c13.5-13.6 26.8-28.3 26.8-28.3l-16.9-115.3-8 56.2-24.7 51.3z"/><path class="c" d="m838.1 513.9c0 0 1.5-24.8 6.9-28.6 5.3-3.9 22.8-9.3 24.7-12.7 2-3.4 4.9-1.9 4.4 2.4-0.5 4.4-5.8 10.7-7.3 11.2-1.4 0.5-8.7 4.9-8.7 4.9 0 0 5.8 4.8 7.3 5.3 1.4 0.5 20.4 4.4 20.4 4.4 0 0 18.9-15.5 18.9-11.7 0 3.9-12.6 27.8-14 30.7-1.5 2.9-12.2 3.9-16.6 4.3-4.4 0.5-25.3 2.5-25.3 2.5 0 0-5.3 54.9-5.8 67.6-0.5 12.6-8.7 24.3-13.1 27.2-4.4 2.9-28.7-18-28.2-25.8 0.5-7.8 30.6-69.5 30.6-69.5z"/><path class="b" d="m844.3 518.1c0 0 4.5-9.5 11.3-8.1 6.9 1.5 27.3 3.9 27.3 3.9 0 0 9.2-12.1 13.1-12.6"/><path class="e" d="m1133.7 583.1h-138.5c-13.1 0-24.3 9.1-27 21.9l-38.8 185.1h194.9l36.4-173.8c3.6-17.1-9.5-33.2-27-33.2z"/><path class="c" d="m968.3 576l-88.7 42.1-25.4 113.7c0 0-11.1 0.4-11.5 3.4-0.4 3 0.4 8.9 0.4 8.9 0 0-7.6 0.4-8.5 7.2-0.8 6.8 0 14 1.3 17.4 1.3 3.4 14 19.1 17.8 19.5 3.9 0.5 8.5 1.3 9.8 1.7 1.3 0.5 217.7 0 217.7 0 0 0 8.5-0.8 10.6-2.5 2.2-1.7 2.6-5.5 2.6-5.5 0 0 5.9-4.7 6.3-7.7 0.5-2.9-2.1-21.2-2.1-25 0-3.8 15.3-114.6 16.2-122.2 0.8-7.7-1.7-10.6-3.9-12.8-2.1-2.1-25.4-15.7-35.6-19.9-10.2-4.3-45.2-19.7-45.2-19.7z"/><path class="f" d="m977.7 651.8c2.2-1.1 49.9-57.1 63.4-73-6.3-2.9-12.9-4.7-12.9-4.7l-59.9 1.3-17.5 9c4.6 14.5 18.2 51.6 20.9 58.5 3.4 8.5 3.4 10.1 6 8.9z"/><path class="c" d="m959 449.7c0 0-16.4 19.5-16.4 26.8 0 7.3 3.2 15.3-0.3 19.5-3.5 4.1-23 13.2-19.1 18 3.8 4.9 9.7 8.7 9.7 8.7l-0.7 11.1c0 0 7 27.1 10.8 28.5 3.8 1.4 16 1.1 16 1.1 0 0 15.2 60.8 19.1 61.5 3.8 0.7 50.1-50.8 50.1-50.8l-1.8-20.5c0 0 18-29.5 22.9-43 4.9-13.6-4.9-41.7-18.8-54.6-13.9-12.9-42-14.9-52.4-13.9-10.5 1-19.1 7.6-19.1 7.6z"/><path class="g" d="m949 479.3c0 0 8.9-2.8 15.2 2.8"/><path class="e" d="m958.8 496c-0.8 2.6-2.5 4.3-3.8 3.9-1.3-0.4-1.6-2.8-0.8-5.4 0.9-2.5 2.6-4.3 3.8-3.9 1.3 0.5 1.7 2.9 0.8 5.4z"/><path class="e" d="m961.4 433.4c0 0-32 5.6-24.3 11.8 7.6 6.3 49.7 17.4 58.7 20.5 9 3.2-15.3 8.7-11.8 11.5 3.4 2.8 10.4 16 10.4 16 0 0-1.4 17.4-5.9 26.7-4.5 9.4-25.7 21.9-25.7 21.9 0 0-11.1-14.9-17-14.9-6 0-14.3 1.4-13.6 6.9 0.7 5.6 3.1 20.5 3.5 21.9 0.3 1.4-4.2 15.3 0.7 18.4 4.8 3.2 29.9-6.9 41-11.8 11.1-4.8 16.3-7.3 17-14.2 0.7-7 11.5-38.2 11.5-38.2 0 0 7.3-4.9 13.9-3.9 6.6 1.1 6.6 15.7 0.7 20.9-5.9 5.2-13.6 10.4-13.6 10.4l19.5 16.3c0 0 42.7-43 43.4-59.7 0.7-16.7-20.5-46.2-29.5-55.6-9.1-9.4-61.2-11.8-78.9-4.9z"/><path class="c" d="m932.6 538.2c0 0 11-4.2 14.2-3.6 5.8 1.1 11.5 7.3 9.5 12.1-1.8 4.2-4.9 8.4-8.8 10.4-3.9 1.9-5.5 2.9-6.1 1-0.7-2-2.4-3.9-4.4-4.2-1.9-0.4-1.3 1.8-1.3 1.8 0 0-1.8-14.9-3.1-17.5z"/><path class="b" d="m936.4 542.9c0 0 6.1 0.3 13.3-3.7"/><path class="b" d="m849.1 744.7c0 0 17.4 2.6 24.6 18.7"/><path class="b" d="m860.1 736.2c0 0 14.4 3.9 19.1 9.8"/><path class="b" d="m1051.2 665.4l-12.4 73.4c0 0-19.5 3.4-19.5 9.3 0 6 10.6 21.2 10.6 21.2"/><path class="b" d="m1053.2 652.2l-0.8 4.7"/><path class="b" d="m1075 730.1c2.1 0 4.2 0.2 6.2 0.6"/><path class="b" d="m1043.9 735.8c0 0 12.1-4.6 25-5.6"/><path class="b" d="m1076.1 741.3c0 0 14 6 19.6 25.1"/><path class="c" d="m1081.2 789.3c0 0 1.3-9.4-10.2-24.2-11.4-14.9-22.5-16.1-25.4-14.9-3 1.3-83.6 30.6-83.6 30.6 0 0-49.7-28.4-53.9-26.3-4.3 2.1-31 35.2-31 35.2z"/><path class="b" d="m888.5 789.7l26.8-28"/><path class="b" d="m903 788.4l24.2-21.6"/><path class="b" d="m921.6 790.1l16.6-16.1"/><path class="b" d="m940.3 788.9l6.8-5.6"/><path class="b" d="m897.3 650.3l1.4-9.6"/><path class="b" d="m877.1 789.7l18.4-126.9"/><path class="c" d="m868.2 789.7c0 0-2.6-25-14.5-30.5-11.8-5.6-25.4 0.8-30.5 2.1-5.1 1.2-50.9 28.8-50.9 28.8z"/><path class="c" d="m812.2 774.4c0 0-12.4-9.3-17.9-14-5.5-4.6-8.9-5.1-19.9-3.8-11.1 1.3-19.1 33.1-19.1 33.1h41.1z"/><path class="c" d="m806.2 769.8c0 0-15.3 16.9-13.6 18.2 1.7 1.3 9.8 0.9 9.8 0.9 0 0 14-10.7 14.4-13.6 0.4-3-10.6-5.5-10.6-5.5z"/><path class="c" d="m787.5 760l-15.2 30.1-8.5-1.7c0 0 9.3-28.8 10.6-31.8 1.3-3 8-3.8 14 0"/><path class="c" d="m774.4 756.6c0 0-12.6-1.4-14.5 1.5-1.9 3-4.6 31.6-4.6 31.6l8.5-1.3z"/><path class="c" d="m758.4 759.6c0 0-10 3.3-10.4 6.1-0.5 2.7 0.2 23.4 0.2 23.4l7.1 0.6z"/><path class="c" d="m747.7 768.6c0 0-9.8 7.3-10.4 9-0.7 1.7-5.9 7.5-3.8 8 2.1 0.4 9.4-5.3 9.4-5.3l4.4-1.9z"/><path class="b" d="m1314.5 790.1h-1312.4"/><path class="i" d="m882.9 786h-143.2v4.1h143.2z"/><path class="i" d="m714.8 674.3h-171.2l27.3 115.8h171.2z"/><path class="f" d="m644.7 734.4c0 6-4.9 10.8-10.8 10.8-6 0-10.9-4.8-10.9-10.8 0-6 4.9-10.8 10.9-10.8 5.9 0 10.8 4.8 10.8 10.8z"/><path class="f" d="m147.9 731.5c0 0-10.1-6.9-18-1.4-7.8 5.5-8.7 33.2 0 42.9 5.1 5.5 18.5 0.9 18.5 0.9l0.9-13.4c0 0-8.5 8.5-12.9-0.4-2.8-5.6-1.4-18.5 3.7-20.8 5-2.3 9.6 2.8 9.6 2.8z"/><path class="b" d="m153.5 706.6c0 0 16.8-7.1 16.8-20.6 0-13.6-8.4-13.6-9.7-23.2"/><path class="b" d="m173.5 662.1c0 0-1.3 7.7 7.1 14.2 8.4 6.4 4.5 16.8 0.7 21.9"/><path class="b" d="m176.1 655c0 0 1.9-4.5 6.4-6.4"/><path class="f" d="m207.7 712.6h-62.4v77.5h62.4z"/><path class="e" d="m229.1 128.8h-2.9v-18.9h-40.2v18.9h-3c-29.4 0-53.3 23.9-53.3 53.3v5.3h152.7v-5.3c0-29.4-23.9-53.3-53.3-53.3z"/><path class="b" d="m206.1 112.5v-111.4"/><path class="e" d="m841.9 128.8h-3v-18.9h-40.2v18.9h-2.9c-29.4 0-53.3 23.9-53.3 53.3v5.3h152.7v-5.3c0-29.4-23.9-53.3-53.3-53.3z"/><path class="b" d="m818.8 112.5v-111.4"/><path class="c" d="m646.2 202.7h-97.6c-12.3 0-22.2 9.9-22.2 22.1v41.2c0 12.2 9.9 22.1 22.2 22.1h76.8l17.5 21.7v-21.7h3.3c12.3 0 22.2-9.9 22.2-22.1v-41.2c0-12.2-9.9-22.1-22.2-22.1z"/><path class="f" d="m575.1 244.8c0 3.4-2.7 6.1-6 6.1-3.3 0-6-2.7-6-6.1 0-3.3 2.7-6 6-6 3.3 0 6 2.7 6 6z"/><path class="f" d="m603.4 244.8c0 3.4-2.7 6.1-6 6.1-3.3 0-6-2.7-6-6.1 0-3.3 2.7-6 6-6 3.3 0 6 2.7 6 6z"/><path class="f" d="m631.7 244.8c0 3.4-2.7 6.1-6 6.1-3.3 0-6-2.7-6-6.1 0-3.3 2.7-6 6-6 3.3 0 6 2.7 6 6z"/></svg>